<svg id="Layer_1" data-name="Layer 1" xmlns="http://www.w3.org/2000/svg" viewBox="0 0 419.39 227.56"><defs><style>.cls-1{fill:#333;}</style></defs><path class="cls-1" d="M327.36,5.41c-15.6,3.2-31.7,10.8-45.4,21.5-18.6,14.3-27.3,27.4-21,31.4,1.4.8,3.7-1.1,14-11.5,16.7-16.9,28.6-24.6,47-30,6-1.8,10.2-2.3,23.6-2.4,12.8-.2,16.7-.6,17.8-1.7,2-2,.8-4.5-3-6.5C356.06,4,336.56,3.51,327.36,5.41Z"/><path class="cls-1" d="M66.56,22.91a4.52,4.52,0,0,0-1.8,3.5c0,3,3.4,4.1,15.8,5,24.2,1.6,49.8,18.2,67.2,43.6,6.6,9.6,8.3,11.4,10.5,10.6,9-3.5-12-32.5-34.1-47.3-9.4-6.2-20.7-11.7-29.1-14C87.86,22.31,69,21.41,66.56,22.91Z"/><path class="cls-1" d="M337.26,32c-16.5,2.2-32.2,9.2-43,19.1-6.7,6.2-12.5,14.6-12.5,18.3,0,2.1,1.7,4.5,3.2,4.5.8,0,4.5-3.6,12.6-12.4,10.6-11.4,24.8-17.9,43.1-19.7,5.8-.6,11.7-1.6,13.1-2.2,2.9-1.4,3.8-4.8,1.7-6.6S345.46,30.91,337.26,32Z"/><path class="cls-1" d="M67.26,47.91c-1.8,2-1.8,2.1.1,4,1,1,6.9,3.2,12.9,4.9,20.5,5.8,32.3,13.8,42.6,28.6,5.1,7.4,8.1,9.7,10.2,7.6,1.8-1.8-1.9-11.5-7.1-18.3-9.2-12.1-25.7-22.4-42.9-26.7C72.76,45.41,69.56,45.41,67.26,47.91Z"/><path class="cls-1" d="M341.12,56.91c-7.5,1.6-19.2,6.7-25.7,11.3-7.5,5.3-12,12.4-9.8,15.1s4.9,1.9,9.9-2.7c2.6-2.4,6.2-5.3,7.9-6.6,4.1-2.8,15.9-7,22.1-7.8,5.1-.6,8.2-2.6,8.2-5.3C353.76,57.11,348.26,55.41,341.12,56.91Z"/><path class="cls-1" d="M391.26,57.31a17.45,17.45,0,0,1-3.7,1c-3.9.9-8.8,5.4-10.9,10.1-5,11,1,24.5,12.3,27.6,16.4,4.4,30.4-13.2,22.5-28.2a21.59,21.59,0,0,0-15.2-10.3A18.61,18.61,0,0,0,391.26,57.31Z"/><path class="cls-1" d="M68.76,74.81a5.26,5.26,0,0,0-.4,3.4c.5,1.5,4.6,3.7,6.8,3.7,3.7,0,18.3,8.7,24.6,14.6,6.8,6.4,9.6,7.7,10.6,4.9,1-2.6-.4-6-4.7-10.9C95,78.31,72.12,68.61,68.76,74.81Z"/><path class="cls-1" d="M339.12,78.81c-15.3,5.6-17,9.2-11.4,23.8,1.7,4.2,3,8.7,3,9.8s-1.8,10.8-4,21.5c-7.7,37.1-6.7,45.7,6,51.3,9.3,4.2,26.5,1.7,30.3-4.4,1.4-2.2,4.2-2.6,3.4-.5-.3.8-1.1,3.4-1.7,5.7-1.6,5.8-5.4,11.6-8.9,13.4a25.87,25.87,0,0,1-9.1,1.5c-5.3,0-6.4-.3-9.2-3-3-2.9-3.5-3-11.9-3a63.38,63.38,0,0,0-10.3.6c-3.1,1.2-1.5,9.7,2.7,14.2,3.9,4.2,9.2,6.2,19.6,7.3,22.9,2.5,39.4-4.4,46.5-19.5,1.3-2.8,3.8-11.4,5.5-19.1,10.4-47.8,14.2-66.7,13.7-68s-2.6-1.5-10.3-1.5c-5.4,0-10.4.4-11,.8-1.2.8-4.1,11.9-7.8,29.7-2.6,12.4-5.3,20.9-7.5,23.7-3.4,4.4-18.4,6.3-20.6,2.6-1.2-1.8-.5-10.3,1.6-20.5,1.2-5.4,2.3-11.2,2.7-12.8.8-4,1.9-5.3,5.4-6,4-.9,8.9-6,8.9-9.4,0-1.4-1.1-6-2.4-10.1s-3.6-11.4-5-16.2-3.5-9.6-4.4-10.8C350.56,77,345.26,76.61,339.12,78.81Zm10.4,8.8c2.5,4.7,9.4,27.5,8.6,28.2-1.8,1.6-13.2,5.1-14.7,4.5-1.9-.7-6.4-10-10.6-21.5-2.4-6.7-1.9-7.4,6.4-10.8,6.24-2.5,9.24-2.6,10.34-.4Z"/><path class="cls-1" d="M204.36,82.23c-.8,1.2-2.9,9-4.5,17.2-5.3,26.3-12.9,62.8-15.4,74.1-1.6,7-2.2,11.3-1.5,11.9,1.5,1.6,20.6,1.2,22.3-.6.7-.8,2.3-6.4,3.4-12.4s3.3-16.4,4.6-23,3.7-17.4,5.1-24,4.1-18.9,6-27.4,3.3-16,3-16.7c-.4-1.1-3.1-1.4-11-1.4C206.56,79.91,205.66,80.11,204.36,82.23Z"/><path class="cls-1" d="M23.86,91.31c-.6.7-2.4,7.4-4,14.7-10.5,48.9-16.3,78.1-15.7,79.4.4,1.2,2.6,1.5,12,1.5h11.4l1.1-4.8c.6-2.6,2.3-10.9,3.8-18.5,2.3-11.8,2.9-13.6,3.9-12.2.7,1,4.9,8.8,9.3,17.5s8.7,16.3,9.5,16.9c1.7,1.4,26.8,1.2,28.2-.2.4-.4-.6-2.6-2.3-5-6.9-9.6-19.3-28.1-19.3-28.7,0-.4,1.5-1,3.4-1.3,6-1,14.6-5.9,19.2-11,5.5-6.1,8.5-15,8.5-25.5,0-6.5-.3-8-2.8-12-5.9-9.6-16.2-12.2-47.9-12.2C28.86,89.91,24.76,90.23,23.86,91.31Zm41.5,21.1c5,3.2,2.2,14.2-4.6,18.4-2.1,1.2-6,2-12.2,2.5-5,.3-9.3.4-9.5.2-.5-.5,3.5-18.6,4.8-21.5,1-2.3,1.2-2.4,10-1.8C59.56,110.61,63.86,111.41,65.36,112.41Z"/><path class="cls-1" d="M134.46,109c-20.4,2.9-33.9,19.7-36.4,45.5a29.76,29.76,0,0,0,1.6,13.2c1.8,6,2.9,7.7,7.2,11.6,6.5,5.8,13.2,7.9,25.4,7.9,10.6.1,20-2.2,25.9-6.1,4.6-3.1,12.2-13.4,11.2-15.1-.5-.7-4.7-1.1-11.4-1.1-9.6,0-11.1.3-14.7,2.5-5.4,3.3-16,3.6-19.3.5-2.5-2.4-3.5-5.5-3-9.6l.3-2.9h19c31.2,0,30.3.1,32.1-4,1.8-4.3,1.9-20.1.2-25.9s-9.1-12.9-15.4-14.9A57.21,57.21,0,0,0,134.46,109Zm12.6,18c2.9,1.3,4.7,4.8,4.7,8.8v2.8l-9.7.6c-13.6.9-17.3.9-17.3-.3,0-2.2,5.2-9.2,8.3-11C136.66,125.71,143.26,125.31,147.06,127Z"/><path class="cls-1" d="M261.76,108.91c-15,3.2-24.7,13.8-30.6,33.5-2.7,9.1-2.5,23.6.4,30,2.8,6,5.5,9.1,10.4,11.6a30.32,30.32,0,0,0,19.9,2.9c7.3-1.3,10.4-2.8,17.5-8.2a39.52,39.52,0,0,1,5.7-3.8c.3,0,.9,2,1.2,4.3,1,6.3,1.5,6.9,7,6.5,4.4-.3,4.9-.6,5.6-3.2,2.6-9.5,14-68.2,13.7-70.4s-.9-2.8-3.6-3c-4.3-.4-7.7,1.8-10.2,6.7-2.9,5.7-3.9,5.9-7.3,1.7C285.56,110.11,273.12,106.61,261.76,108.91Zm20,21.5c1.5,1.4,2,3,2,7.2,0,11-4.6,23.5-10.3,27.7-4.2,3.1-14.7,3-17.9-.2-2-1.9-2.3-3.2-2.2-9.5.1-13,4.6-23.1,11.9-26.3C269.46,127.31,279.06,128,281.76,130.41Z"/></svg>